<?xml version="1.0" encoding="UTF-8" standalone="no"?>
<svg width="100px" height="100px" viewBox="0 0 100 100" version="1.1" xmlns="http://www.w3.org/2000/svg" xmlns:xlink="http://www.w3.org/1999/xlink" xmlns:sketch="http://www.bohemiancoding.com/sketch/ns">
    <!-- Generator: Sketch 3.2.2 (9983) - http://www.bohemiancoding.com/sketch -->
    <title>Slice 1</title>
    <desc>Created with Sketch.</desc>
    <defs></defs>
    <g id="Page-1" stroke="none" stroke-width="1" fill="none" fill-rule="evenodd" sketch:type="MSPage">
        <g id="Rectangle-5-+-Multicolor_1_" sketch:type="MSLayerGroup">
            <rect id="Rectangle-5" sketch:type="MSShapeGroup" x="0" y="0" width="100" height="100"></rect>
            <g id="Multicolor_1_" transform="translate(6.000000, 0.000000)" sketch:type="MSShapeGroup">
                <path d="M0,9.375 C0,4.196875 4.22085714,0 9.42857143,0 L78.5714286,0 C83.7791429,0 88,4.196875 88,9.375 L88,90.625 C88,95.803125 83.7791429,100 78.5714286,100 L9.42857143,100 C4.22085714,100 0,95.803125 0,90.625 L0,9.375 L0,9.375 Z" id="Shape" fill="#84462D"></path>
                <path d="M9.42857143,18.75 C9.42857143,17.0234375 10.835,15.625 12.5714286,15.625 L75.4285714,15.625 C77.165,15.625 78.5714286,17.0234375 78.5714286,18.75 L78.5714286,84.375 C78.5714286,87.8265625 75.757,90.625 72.2857143,90.625 L15.7142857,90.625 C12.243,90.625 9.42857143,87.8265625 9.42857143,84.375 L9.42857143,18.75 L9.42857143,18.75 Z" id="Shape" fill="#CFD3D4"></path>
                <path d="M75.4285714,15.625 C77.165,15.625 78.5714286,17.0234375 78.5714286,18.75 L78.5714286,82.8125 C78.5714286,84.5390625 77.165,85.9375 75.4285714,85.9375 L12.5714286,85.9375 C10.8428571,85.9375 9.42857143,84.53125 9.42857143,82.8125 L9.42857143,18.75 C9.42857143,17.0234375 10.835,15.625 12.5714286,15.625 L75.4285714,15.625 L75.4285714,15.625 Z" id="Shape" fill="#FFFFFF"></path>
                <path d="M53.4285714,9.375 C53.4285714,4.196875 49.2077143,0 44,0 C38.7922857,0 34.5714286,4.196875 34.5714286,9.375 L28.2857143,9.375 C26.5492857,9.375 25.1428571,10.7734375 25.1428571,12.5 L25.1428571,20.3125 C25.1428571,22.0390625 26.5492857,23.4375 28.2857143,23.4375 L59.7142857,23.4375 C61.4507143,23.4375 62.8571429,22.0390625 62.8571429,20.3125 L62.8571429,12.5 C62.8571429,10.7734375 61.4507143,9.375 59.7142857,9.375 L53.4285714,9.375 L53.4285714,9.375 Z" id="Shape" fill="#FACB1B"></path>
                <rect id="Rectangle-path" fill="#E2E4E5" x="18.8571429" y="34.375" width="50.2857143" height="3.125"></rect>
                <rect id="Rectangle-path" fill="#E2E4E5" x="18.8571429" y="43.75" width="50.2857143" height="3.125"></rect>
                <rect id="Rectangle-path" fill="#E2E4E5" x="18.8571429" y="53.125" width="50.2857143" height="3.125"></rect>
                <rect id="Rectangle-path" fill="#E2E4E5" x="18.8571429" y="62.5" width="31.4285714" height="3.125"></rect>
                <path d="M59.7142857,9.375 L53.4285714,9.375 C53.4285714,4.196875 49.2077143,0 44,0 C38.7922857,0 34.5714286,4.196875 34.5714286,9.375 L28.2857143,9.375 C26.5508571,9.375 25.1428571,10.775 25.1428571,12.5 L25.1428571,15.625 L62.8571429,15.625 L62.8571429,12.5 C62.8571429,10.775 61.4507143,9.375 59.7142857,9.375 L59.7142857,9.375 Z" id="Shape" fill="#FBE158"></path>
            </g>
        </g>
    </g>
</svg>